<svg width="958" height="539" viewBox="0 0 958 539" fill="none" xmlns="http://www.w3.org/2000/svg">
<rect width="958" height="539" fill="#03652F"/>
<path d="M157.765 313V248.44H175.645V266.08L172.285 260.92C174.525 256.52 177.685 253.2 181.765 250.96C185.925 248.64 190.645 247.48 195.925 247.48C201.845 247.48 207.005 249 211.405 252.04C215.885 255 218.845 259.56 220.285 265.72L213.685 263.92C215.845 258.88 219.285 254.88 224.005 251.92C228.805 248.96 234.285 247.48 240.445 247.48C245.565 247.48 250.085 248.52 254.005 250.6C258.005 252.6 261.125 255.72 263.365 259.96C265.685 264.12 266.845 269.48 266.845 276.04V313H248.125V278.92C248.125 273.72 247.045 269.88 244.885 267.4C242.725 264.92 239.685 263.68 235.765 263.68C233.045 263.68 230.605 264.32 228.445 265.6C226.285 266.8 224.605 268.64 223.405 271.12C222.205 273.6 221.605 276.76 221.605 280.6V313H202.885V278.92C202.885 273.72 201.805 269.88 199.645 267.4C197.565 264.92 194.565 263.68 190.645 263.68C187.925 263.68 185.485 264.32 183.325 265.6C181.165 266.8 179.485 268.64 178.285 271.12C177.085 273.6 176.485 276.76 176.485 280.6V313H157.765ZM323.224 313V300.4L322.024 297.64V275.08C322.024 271.08 320.784 267.96 318.304 265.72C315.904 263.48 312.184 262.36 307.144 262.36C303.704 262.36 300.304 262.92 296.944 264.04C293.664 265.08 290.864 266.52 288.544 268.36L281.824 255.28C285.344 252.8 289.584 250.88 294.544 249.52C299.504 248.16 304.544 247.48 309.664 247.48C319.504 247.48 327.144 249.8 332.584 254.44C338.024 259.08 340.744 266.32 340.744 276.16V313H323.224ZM303.544 313.96C298.504 313.96 294.184 313.12 290.584 311.44C286.984 309.68 284.224 307.32 282.304 304.36C280.384 301.4 279.424 298.08 279.424 294.4C279.424 290.56 280.344 287.2 282.184 284.32C284.104 281.44 287.104 279.2 291.184 277.6C295.264 275.92 300.584 275.08 307.144 275.08H324.304V286H309.184C304.784 286 301.744 286.72 300.064 288.16C298.464 289.6 297.664 291.4 297.664 293.56C297.664 295.96 298.584 297.88 300.424 299.32C302.344 300.68 304.944 301.36 308.224 301.36C311.344 301.36 314.144 300.64 316.624 299.2C319.104 297.68 320.904 295.48 322.024 292.6L324.904 301.24C323.544 305.4 321.064 308.56 317.464 310.72C313.864 312.88 309.224 313.96 303.544 313.96ZM384.087 313.96C376.487 313.96 370.567 312.04 366.327 308.2C362.087 304.28 359.967 298.48 359.967 290.8V234.16H378.687V290.56C378.687 293.28 379.407 295.4 380.847 296.92C382.287 298.36 384.247 299.08 386.727 299.08C389.687 299.08 392.207 298.28 394.287 296.68L399.327 309.88C397.407 311.24 395.087 312.28 392.367 313C389.727 313.64 386.967 313.96 384.087 313.96ZM350.007 262.84V248.44H394.767V262.84H350.007ZM439.043 313.96C432.083 313.96 425.883 312.56 420.443 309.76C415.003 306.88 410.723 302.92 407.603 297.88C404.563 292.84 403.043 287.12 403.043 280.72C403.043 274.24 404.563 268.52 407.603 263.56C410.723 258.52 415.003 254.6 420.443 251.8C425.883 248.92 432.083 247.48 439.043 247.48C445.843 247.48 451.763 248.92 456.803 251.8C461.843 254.6 465.563 258.64 467.963 263.92L453.443 271.72C451.763 268.68 449.643 266.44 447.083 265C444.603 263.56 441.883 262.84 438.923 262.84C435.723 262.84 432.843 263.56 430.283 265C427.723 266.44 425.683 268.48 424.163 271.12C422.723 273.76 422.003 276.96 422.003 280.72C422.003 284.48 422.723 287.68 424.163 290.32C425.683 292.96 427.723 295 430.283 296.44C432.843 297.88 435.723 298.6 438.923 298.6C441.883 298.6 444.603 297.92 447.083 296.56C449.643 295.12 451.763 292.84 453.443 289.72L467.963 297.64C465.563 302.84 461.843 306.88 456.803 309.76C451.763 312.56 445.843 313.96 439.043 313.96ZM478.39 313V223.96H497.11V266.32L492.91 260.92C495.23 256.6 498.55 253.28 502.87 250.96C507.19 248.64 512.11 247.48 517.63 247.48C522.75 247.48 527.31 248.52 531.31 250.6C535.39 252.6 538.59 255.72 540.91 259.96C543.23 264.12 544.39 269.48 544.39 276.04V313H525.67V278.92C525.67 273.72 524.51 269.88 522.19 267.4C519.95 264.92 516.75 263.68 512.59 263.68C509.63 263.68 506.95 264.32 504.55 265.6C502.23 266.8 500.39 268.68 499.03 271.24C497.75 273.8 497.11 277.08 497.11 281.08V313H478.39ZM589.548 313.96C583.468 313.96 577.988 312.6 573.108 309.88C568.228 307.08 564.348 303.2 561.468 298.24C558.668 293.28 557.268 287.44 557.268 280.72C557.268 273.92 558.668 268.04 561.468 263.08C564.348 258.12 568.228 254.28 573.108 251.56C577.988 248.84 583.468 247.48 589.548 247.48C594.988 247.48 599.748 248.68 603.828 251.08C607.908 253.48 611.068 257.12 613.308 262C615.548 266.88 616.668 273.12 616.668 280.72C616.668 288.24 615.588 294.48 613.428 299.44C611.268 304.32 608.148 307.96 604.068 310.36C600.068 312.76 595.228 313.96 589.548 313.96ZM592.788 298.6C595.828 298.6 598.588 297.88 601.068 296.44C603.548 295 605.508 292.96 606.948 290.32C608.468 287.6 609.228 284.4 609.228 280.72C609.228 276.96 608.468 273.76 606.948 271.12C605.508 268.48 603.548 266.44 601.068 265C598.588 263.56 595.828 262.84 592.788 262.84C589.668 262.84 586.868 263.56 584.388 265C581.908 266.44 579.908 268.48 578.388 271.12C576.948 273.76 576.228 276.96 576.228 280.72C576.228 284.4 576.948 287.6 578.388 290.32C579.908 292.96 581.908 295 584.388 296.44C586.868 297.88 589.668 298.6 592.788 298.6ZM609.708 313V299.8L610.068 280.6L608.868 261.52V223.96H627.588V313H609.708ZM684.513 313V300.4L683.313 297.64V275.08C683.313 271.08 682.073 267.96 679.593 265.72C677.193 263.48 673.473 262.36 668.433 262.36C664.993 262.36 661.593 262.92 658.233 264.04C654.953 265.08 652.153 266.52 649.833 268.36L643.113 255.28C646.633 252.8 650.873 250.88 655.833 249.52C660.793 248.16 665.833 247.48 670.953 247.48C680.793 247.48 688.433 249.8 693.873 254.44C699.313 259.08 702.033 266.32 702.033 276.16V313H684.513ZM664.833 313.96C659.793 313.96 655.473 313.12 651.873 311.44C648.273 309.68 645.513 307.32 643.593 304.36C641.673 301.4 640.713 298.08 640.713 294.4C640.713 290.56 641.633 287.2 643.473 284.32C645.393 281.44 648.393 279.2 652.473 277.6C656.553 275.92 661.873 275.08 668.433 275.08H685.593V286H670.473C666.073 286 663.033 286.72 661.353 288.16C659.753 289.6 658.953 291.4 658.953 293.56C658.953 295.96 659.873 297.88 661.713 299.32C663.633 300.68 666.233 301.36 669.513 301.36C672.633 301.36 675.433 300.64 677.913 299.2C680.393 297.68 682.193 295.48 683.313 292.6L686.193 301.24C684.833 305.4 682.353 308.56 678.753 310.72C675.153 312.88 670.513 313.96 664.833 313.96ZM725.964 337.24C722.604 337.24 719.284 336.72 716.004 335.68C712.724 334.64 710.044 333.2 707.964 331.36L714.804 318.04C716.244 319.32 717.884 320.32 719.724 321.04C721.644 321.76 723.524 322.12 725.364 322.12C728.004 322.12 730.084 321.48 731.604 320.2C733.204 319 734.644 316.96 735.924 314.08L739.284 306.16L740.724 304.12L763.884 248.44H781.884L752.724 316.96C750.644 322.16 748.244 326.24 745.524 329.2C742.884 332.16 739.924 334.24 736.644 335.44C733.444 336.64 729.884 337.24 725.964 337.24ZM737.004 315.52L708.204 248.44H727.524L749.844 302.44L737.004 315.52Z" fill="white"/>
<circle cx="794.875" cy="299" r="14" fill="#DCF401"/>
</svg>
