<svg width="660" height="146" viewBox="0 0 660 146" fill="none" xmlns="http://www.w3.org/2000/svg">
<path d="M8.64 116V51.44H26.52V69.08L23.16 63.92C25.4 59.52 28.56 56.2 32.64 53.96C36.8 51.64 41.52 50.48 46.8 50.48C52.72 50.48 57.88 52 62.28 55.04C66.76 58 69.72 62.56 71.16 68.72L64.56 66.92C66.72 61.88 70.16 57.88 74.88 54.92C79.68 51.96 85.16 50.48 91.32 50.48C96.44 50.48 100.96 51.52 104.88 53.6C108.88 55.6 112 58.72 114.24 62.96C116.56 67.12 117.72 72.48 117.72 79.04V116H99V81.92C99 76.72 97.92 72.88 95.76 70.4C93.6 67.92 90.56 66.68 86.64 66.68C83.92 66.68 81.48 67.32 79.32 68.6C77.16 69.8 75.48 71.64 74.28 74.12C73.08 76.6 72.48 79.76 72.48 83.6V116H53.76V81.92C53.76 76.72 52.68 72.88 50.52 70.4C48.44 67.92 45.44 66.68 41.52 66.68C38.8 66.68 36.36 67.32 34.2 68.6C32.04 69.8 30.36 71.64 29.16 74.12C27.96 76.6 27.36 79.76 27.36 83.6V116H8.64ZM174.099 116V103.4L172.899 100.64V78.08C172.899 74.08 171.659 70.96 169.179 68.72C166.779 66.48 163.059 65.36 158.019 65.36C154.579 65.36 151.179 65.92 147.819 67.04C144.539 68.08 141.739 69.52 139.419 71.36L132.699 58.28C136.219 55.8 140.459 53.88 145.419 52.52C150.379 51.16 155.419 50.48 160.539 50.48C170.379 50.48 178.019 52.8 183.459 57.44C188.899 62.08 191.619 69.32 191.619 79.16V116H174.099ZM154.419 116.96C149.379 116.96 145.059 116.12 141.459 114.44C137.859 112.68 135.099 110.32 133.179 107.36C131.259 104.4 130.299 101.08 130.299 97.4C130.299 93.56 131.219 90.2 133.059 87.32C134.979 84.44 137.979 82.2 142.059 80.6C146.139 78.92 151.459 78.08 158.019 78.08H175.179V89H160.059C155.659 89 152.619 89.72 150.939 91.16C149.339 92.6 148.539 94.4 148.539 96.56C148.539 98.96 149.459 100.88 151.299 102.32C153.219 103.68 155.819 104.36 159.099 104.36C162.219 104.36 165.019 103.64 167.499 102.2C169.979 100.68 171.779 98.48 172.899 95.6L175.779 104.24C174.419 108.4 171.939 111.56 168.339 113.72C164.739 115.88 160.099 116.96 154.419 116.96ZM234.962 116.96C227.362 116.96 221.442 115.04 217.202 111.2C212.962 107.28 210.842 101.48 210.842 93.8V37.16H229.562V93.56C229.562 96.28 230.282 98.4 231.722 99.92C233.162 101.36 235.122 102.08 237.602 102.08C240.562 102.08 243.082 101.28 245.162 99.68L250.202 112.88C248.282 114.24 245.962 115.28 243.242 116C240.602 116.64 237.842 116.96 234.962 116.96ZM200.882 65.84V51.44H245.642V65.84H200.882ZM289.918 116.96C282.958 116.96 276.758 115.56 271.318 112.76C265.878 109.88 261.598 105.92 258.478 100.88C255.438 95.84 253.918 90.12 253.918 83.72C253.918 77.24 255.438 71.52 258.478 66.56C261.598 61.52 265.878 57.6 271.318 54.8C276.758 51.92 282.958 50.48 289.918 50.48C296.718 50.48 302.638 51.92 307.678 54.8C312.718 57.6 316.438 61.64 318.838 66.92L304.318 74.72C302.638 71.68 300.518 69.44 297.958 68C295.478 66.56 292.758 65.84 289.798 65.84C286.598 65.84 283.718 66.56 281.158 68C278.598 69.44 276.558 71.48 275.038 74.12C273.598 76.76 272.878 79.96 272.878 83.72C272.878 87.48 273.598 90.68 275.038 93.32C276.558 95.96 278.598 98 281.158 99.44C283.718 100.88 286.598 101.6 289.798 101.6C292.758 101.6 295.478 100.92 297.958 99.56C300.518 98.12 302.638 95.84 304.318 92.72L318.838 100.64C316.438 105.84 312.718 109.88 307.678 112.76C302.638 115.56 296.718 116.96 289.918 116.96ZM329.265 116V26.96H347.985V69.32L343.785 63.92C346.105 59.6 349.425 56.28 353.745 53.96C358.065 51.64 362.985 50.48 368.505 50.48C373.625 50.48 378.185 51.52 382.185 53.6C386.265 55.6 389.465 58.72 391.785 62.96C394.105 67.12 395.265 72.48 395.265 79.04V116H376.545V81.92C376.545 76.72 375.385 72.88 373.065 70.4C370.825 67.92 367.625 66.68 363.465 66.68C360.505 66.68 357.825 67.32 355.425 68.6C353.105 69.8 351.265 71.68 349.905 74.24C348.625 76.8 347.985 80.08 347.985 84.08V116H329.265ZM440.423 116.96C434.343 116.96 428.863 115.6 423.983 112.88C419.103 110.08 415.223 106.2 412.343 101.24C409.543 96.28 408.143 90.44 408.143 83.72C408.143 76.92 409.543 71.04 412.343 66.08C415.223 61.12 419.103 57.28 423.983 54.56C428.863 51.84 434.343 50.48 440.423 50.48C445.863 50.48 450.623 51.68 454.703 54.08C458.783 56.48 461.943 60.12 464.183 65C466.423 69.88 467.543 76.12 467.543 83.72C467.543 91.24 466.463 97.48 464.303 102.44C462.143 107.32 459.023 110.96 454.943 113.36C450.943 115.76 446.103 116.96 440.423 116.96ZM443.663 101.6C446.703 101.6 449.463 100.88 451.943 99.44C454.423 98 456.383 95.96 457.823 93.32C459.343 90.6 460.103 87.4 460.103 83.72C460.103 79.96 459.343 76.76 457.823 74.12C456.383 71.48 454.423 69.44 451.943 68C449.463 66.56 446.703 65.84 443.663 65.84C440.543 65.84 437.743 66.56 435.263 68C432.783 69.44 430.783 71.48 429.263 74.12C427.823 76.76 427.103 79.96 427.103 83.72C427.103 87.4 427.823 90.6 429.263 93.32C430.783 95.96 432.783 98 435.263 99.44C437.743 100.88 440.543 101.6 443.663 101.6ZM460.583 116V102.8L460.943 83.6L459.743 64.52V26.96H478.463V116H460.583ZM535.388 116V103.4L534.188 100.64V78.08C534.188 74.08 532.948 70.96 530.468 68.72C528.068 66.48 524.348 65.36 519.308 65.36C515.868 65.36 512.468 65.92 509.108 67.04C505.828 68.08 503.028 69.52 500.708 71.36L493.988 58.28C497.508 55.8 501.748 53.88 506.708 52.52C511.668 51.16 516.708 50.48 521.828 50.48C531.668 50.48 539.308 52.8 544.748 57.44C550.188 62.08 552.908 69.32 552.908 79.16V116H535.388ZM515.708 116.96C510.668 116.96 506.348 116.12 502.748 114.44C499.148 112.68 496.388 110.32 494.468 107.36C492.548 104.4 491.588 101.08 491.588 97.4C491.588 93.56 492.508 90.2 494.348 87.32C496.268 84.44 499.268 82.2 503.348 80.6C507.428 78.92 512.748 78.08 519.308 78.08H536.468V89H521.348C516.948 89 513.908 89.72 512.228 91.16C510.628 92.6 509.828 94.4 509.828 96.56C509.828 98.96 510.748 100.88 512.588 102.32C514.508 103.68 517.108 104.36 520.388 104.36C523.508 104.36 526.308 103.64 528.788 102.2C531.268 100.68 533.068 98.48 534.188 95.6L537.068 104.24C535.708 108.4 533.228 111.56 529.628 113.72C526.028 115.88 521.388 116.96 515.708 116.96ZM576.839 140.24C573.479 140.24 570.159 139.72 566.879 138.68C563.599 137.64 560.919 136.2 558.839 134.36L565.679 121.04C567.119 122.32 568.759 123.32 570.599 124.04C572.519 124.76 574.399 125.12 576.239 125.12C578.879 125.12 580.959 124.48 582.479 123.2C584.079 122 585.519 119.96 586.799 117.08L590.159 109.16L591.599 107.12L614.759 51.44H632.759L603.599 119.96C601.519 125.16 599.119 129.24 596.399 132.2C593.759 135.16 590.799 137.24 587.519 138.44C584.319 139.64 580.759 140.24 576.839 140.24ZM587.879 118.52L559.079 51.44H578.399L600.719 105.44L587.879 118.52Z" fill="#14263D"/>
<circle cx="645.75" cy="102" r="14" fill="#DCF401"/>
</svg>
